<mxfile host="app.diagrams.net" modified="2024-01-27T01:44:53.802Z" agent="Mozilla/5.0 (Windows NT 10.0; Win64; x64) AppleWebKit/537.36 (KHTML, like Gecko) Chrome/121.0.0.0 Safari/537.36" etag="hqTcC1ROBESbOLLYptgD" version="21.8.2" type="device">
  <diagram id="C5RBs43oDa-KdzZeNtuy" name="Page-1">
    <mxGraphModel dx="1050" dy="603" grid="1" gridSize="10" guides="1" tooltips="1" connect="1" arrows="1" fold="1" page="1" pageScale="1" pageWidth="827" pageHeight="1169" math="0" shadow="0">
      <root>
        <mxCell id="WIyWlLk6GJQsqaUBKTNV-0" />
        <mxCell id="WIyWlLk6GJQsqaUBKTNV-1" parent="WIyWlLk6GJQsqaUBKTNV-0" />
        <mxCell id="aPuJg-T2TJJqjWJHhW6b-0" value="Individual" style="rounded=1;whiteSpace=wrap;html=1;" vertex="1" parent="WIyWlLk6GJQsqaUBKTNV-1">
          <mxGeometry x="230" y="230" width="120" height="60" as="geometry" />
        </mxCell>
        <mxCell id="aPuJg-T2TJJqjWJHhW6b-1" value="calculate Critical Path" style="rounded=1;whiteSpace=wrap;html=1;" vertex="1" parent="WIyWlLk6GJQsqaUBKTNV-1">
          <mxGeometry x="230" y="340" width="120" height="60" as="geometry" />
        </mxCell>
        <mxCell id="aPuJg-T2TJJqjWJHhW6b-2" value="" style="endArrow=classic;html=1;rounded=0;entryX=0.5;entryY=0;entryDx=0;entryDy=0;exitX=0.5;exitY=1;exitDx=0;exitDy=0;" edge="1" parent="WIyWlLk6GJQsqaUBKTNV-1" source="aPuJg-T2TJJqjWJHhW6b-0" target="aPuJg-T2TJJqjWJHhW6b-1">
          <mxGeometry width="50" height="50" relative="1" as="geometry">
            <mxPoint y="300" as="sourcePoint" />
            <mxPoint x="50" y="250" as="targetPoint" />
          </mxGeometry>
        </mxCell>
        <mxCell id="aPuJg-T2TJJqjWJHhW6b-4" value="calculate min z" style="rounded=1;whiteSpace=wrap;html=1;" vertex="1" parent="WIyWlLk6GJQsqaUBKTNV-1">
          <mxGeometry x="230" y="450" width="120" height="60" as="geometry" />
        </mxCell>
        <mxCell id="aPuJg-T2TJJqjWJHhW6b-5" value="" style="endArrow=classic;html=1;rounded=0;entryX=0.5;entryY=0;entryDx=0;entryDy=0;exitX=0.5;exitY=1;exitDx=0;exitDy=0;" edge="1" parent="WIyWlLk6GJQsqaUBKTNV-1" source="aPuJg-T2TJJqjWJHhW6b-1" target="aPuJg-T2TJJqjWJHhW6b-4">
          <mxGeometry width="50" height="50" relative="1" as="geometry">
            <mxPoint x="70" y="470" as="sourcePoint" />
            <mxPoint x="120" y="420" as="targetPoint" />
          </mxGeometry>
        </mxCell>
        <mxCell id="aPuJg-T2TJJqjWJHhW6b-6" value="calculate cross over" style="rounded=1;whiteSpace=wrap;html=1;" vertex="1" parent="WIyWlLk6GJQsqaUBKTNV-1">
          <mxGeometry x="230" y="555" width="120" height="60" as="geometry" />
        </mxCell>
        <mxCell id="aPuJg-T2TJJqjWJHhW6b-7" value="" style="endArrow=classic;html=1;rounded=0;entryX=0.5;entryY=0;entryDx=0;entryDy=0;exitX=0.5;exitY=1;exitDx=0;exitDy=0;" edge="1" parent="WIyWlLk6GJQsqaUBKTNV-1" source="aPuJg-T2TJJqjWJHhW6b-4" target="aPuJg-T2TJJqjWJHhW6b-6">
          <mxGeometry width="50" height="50" relative="1" as="geometry">
            <mxPoint x="-60" y="530" as="sourcePoint" />
            <mxPoint x="-10" y="480" as="targetPoint" />
          </mxGeometry>
        </mxCell>
      </root>
    </mxGraphModel>
  </diagram>
</mxfile>
